
		<svg xmlns="http://www.w3.org/2000/svg" xmlns:xlink="http://www.w3.org/1999/xlink" version="1.1" width="3093.167701863354" height="728.4877374305489">
			<g transform="scale(4.658385093167702) translate(10, 10)">
				<defs id="SvgjsDefs2332"></defs>
        <g id="SvgjsG2333" featureKey="root" fill="#13669a"></g>
        <g id="SvgjsG2334" featureKey="container1" fill="#fff" transform="matrix(2.325000047683716,0,0,2.325000047683716,0,10)">
        <circle cx="25" cy="25" r="25"></circle></g>
        <g id="SvgjsG2335" featureKey="symbol1" fill="#9a1313" transform="matrix(1.1713709831237793,0,0,1.1713709831237793,20.828629032258064,30.828629032258064)"><g><rect x="34" y="57" width="2" height="2"></rect>
        <path d="M5,53.184V42H3v11.184C1.839,53.598,1,54.698,1,56c0,1.654,1.346,3,3,3s3-1.346,3-3C7,54.698,6.161,53.598,5,53.184z M4,57   c-0.551,0-1-0.448-1-1s0.449-1,1-1s1,0.448,1,1S4.551,57,4,57z"></path>
        <path d="M10,38c-1.654,0-3,1.346-3,3c0,1.302,0.839,2.402,2,2.816V55h2V43.816c1.161-0.414,2-1.514,2-2.816   C13,39.346,11.654,38,10,38z M10,42c-0.551,0-1-0.448-1-1s0.449-1,1-1s1,0.448,1,1S10.551,42,10,42z"></path>
        <path d="M61,53.184V42h-2v11.184c-1.161,0.414-2,1.514-2,2.816c0,1.654,1.346,3,3,3s3-1.346,3-3C63,54.698,62.161,53.598,61,53.184   z M60,57c-0.551,0-1-0.448-1-1s0.449-1,1-1s1,0.448,1,1S60.551,57,60,57z"></path>
        <path d="M57,41c0-1.654-1.346-3-3-3s-3,1.346-3,3c0,1.302,0.839,2.402,2,2.816V55h2V43.816C56.161,43.402,57,42.302,57,41z M54,42   c-0.551,0-1-0.448-1-1s0.449-1,1-1s1,0.448,1,1S54.551,42,54,42z"></path>
        <path d="M17.07,12.876l1.984,0.248C19.49,9.633,22.476,7,26,7V5C21.469,5,17.63,8.386,17.07,12.876z"></path>
        <path d="M56,25h-2c0,2.206-1.794,4-4,4h-3v2h3C53.309,31,56,28.309,56,25z"></path>
        <path d="M50,35c5.514,0,10-4.486,10-10c0-5.192-3.978-9.473-9.045-9.955C50.473,9.978,46.192,6,41,6   c-1.418,0-2.824,0.307-4.117,0.894C34.492,3.235,30.406,1,26,1c-6.876,0-12.523,5.367-12.969,12.177C7.825,14.108,4,18.616,4,24   c0,6.065,4.935,11,11,11h5.279l3.333,10H20v6h2.08l0.771,9.249C22.979,61.792,24.292,63,25.84,63H38.16   c1.548,0,2.861-1.208,2.99-2.751L41.92,51H44v-6h-3.612l3.333-10H50z M6,24c0-4.647,3.482-8.497,8.101-8.954L15,14.906V14   c0-6.065,4.935-11,11-11c4.003,0,7.694,2.182,9.633,5.692l0.493,0.893l0.883-0.51C38.225,8.372,39.605,8,41,8c4.411,0,8,3.589,8,8   v1h1c4.411,0,8,3.589,8,8s-3.589,8-8,8H15C10.038,33,6,28.963,6,24z M22.388,35H31v10h-5.279L22.388,35z M42,49h-4v2h1.913   l-0.167,2H28v2h11.58l-0.424,5.083C39.113,60.598,38.676,61,38.16,61H25.84c-0.516,0-0.954-0.402-0.997-0.917L24.753,59H32v-2   h-7.413l-0.5-6H36v-2H22v-2h20V49z M38.279,45H33V35h8.612L38.279,45z"></path>
        </g>
        </g>
			</g>
		</svg>
	