
		<svg xmlns="http://www.w3.org/2000/svg" xmlns:xlink="http://www.w3.org/1999/xlink" version="1.1" width="3093.167701863354" height="728.4877374305489">
			<rect fill="#13669a" fill-opacity="0.7" width="3093.167701863354" height="728.4877374305489"/>
			<g transform="scale(4.658385093167702) translate(10, 10)">
				<defs id="SvgjsDefs2332"></defs><g id="SvgjsG2333" featureKey="root" fill="#13669a"></g><g id="SvgjsG2334" featureKey="container1" fill="#ffffff" transform="matrix(2.325000047683716,0,0,2.325000047683716,0,10)"><circle cx="25" cy="25" r="25"></circle></g><g id="SvgjsG2335" featureKey="symbol1" fill="#9a1313" transform="matrix(1.1713709831237793,0,0,1.1713709831237793,20.828629032258064,30.828629032258064)"><g><rect x="34" y="57" width="2" height="2"></rect><path d="M5,53.184V42H3v11.184C1.839,53.598,1,54.698,1,56c0,1.654,1.346,3,3,3s3-1.346,3-3C7,54.698,6.161,53.598,5,53.184z M4,57   c-0.551,0-1-0.448-1-1s0.449-1,1-1s1,0.448,1,1S4.551,57,4,57z"></path><path d="M10,38c-1.654,0-3,1.346-3,3c0,1.302,0.839,2.402,2,2.816V55h2V43.816c1.161-0.414,2-1.514,2-2.816   C13,39.346,11.654,38,10,38z M10,42c-0.551,0-1-0.448-1-1s0.449-1,1-1s1,0.448,1,1S10.551,42,10,42z"></path><path d="M61,53.184V42h-2v11.184c-1.161,0.414-2,1.514-2,2.816c0,1.654,1.346,3,3,3s3-1.346,3-3C63,54.698,62.161,53.598,61,53.184   z M60,57c-0.551,0-1-0.448-1-1s0.449-1,1-1s1,0.448,1,1S60.551,57,60,57z"></path><path d="M57,41c0-1.654-1.346-3-3-3s-3,1.346-3,3c0,1.302,0.839,2.402,2,2.816V55h2V43.816C56.161,43.402,57,42.302,57,41z M54,42   c-0.551,0-1-0.448-1-1s0.449-1,1-1s1,0.448,1,1S54.551,42,54,42z"></path><path d="M17.07,12.876l1.984,0.248C19.49,9.633,22.476,7,26,7V5C21.469,5,17.63,8.386,17.07,12.876z"></path><path d="M56,25h-2c0,2.206-1.794,4-4,4h-3v2h3C53.309,31,56,28.309,56,25z"></path><path d="M50,35c5.514,0,10-4.486,10-10c0-5.192-3.978-9.473-9.045-9.955C50.473,9.978,46.192,6,41,6   c-1.418,0-2.824,0.307-4.117,0.894C34.492,3.235,30.406,1,26,1c-6.876,0-12.523,5.367-12.969,12.177C7.825,14.108,4,18.616,4,24   c0,6.065,4.935,11,11,11h5.279l3.333,10H20v6h2.08l0.771,9.249C22.979,61.792,24.292,63,25.84,63H38.16   c1.548,0,2.861-1.208,2.99-2.751L41.92,51H44v-6h-3.612l3.333-10H50z M6,24c0-4.647,3.482-8.497,8.101-8.954L15,14.906V14   c0-6.065,4.935-11,11-11c4.003,0,7.694,2.182,9.633,5.692l0.493,0.893l0.883-0.51C38.225,8.372,39.605,8,41,8c4.411,0,8,3.589,8,8   v1h1c4.411,0,8,3.589,8,8s-3.589,8-8,8H15C10.038,33,6,28.963,6,24z M22.388,35H31v10h-5.279L22.388,35z M42,49h-4v2h1.913   l-0.167,2H28v2h11.58l-0.424,5.083C39.113,60.598,38.676,61,38.16,61H25.84c-0.516,0-0.954-0.402-0.997-0.917L24.753,59H32v-2   h-7.413l-0.5-6H36v-2H22v-2h20V49z M38.279,45H33V35h8.612L38.279,45z"></path><rect x="43" y="29" width="2" height="2"></rect></g></g><g id="SvgjsG2336" featureKey="text1" fill="#ffffff" transform="matrix(4.077742099761963,0,0,4.077742099761963,130.9506080296324,-24.581167090435386)"><path d="M7.56 24.3 q-1.34 0 -2.49 -0.48 t-2 -1.4 t-1.34 -2.27 t-0.49 -3.09 t0.53 -3.09 t1.41 -2.27 t2.04 -1.39 t2.42 -0.47 q0.78 0 1.42 0.1 t1.12 0.25 t0.82 0.3 t0.52 0.27 l-0.44 1.18 q-0.5 -0.3 -1.27 -0.59 t-1.91 -0.29 q-1.3 0 -2.27 0.44 t-1.63 1.24 t-0.99 1.9 t-0.33 2.44 q0 1.38 0.33 2.49 t0.97 1.89 t1.57 1.2 t2.13 0.42 q1.32 0 2.21 -0.25 t1.35 -0.51 l0.38 1.16 q-0.14 0.1 -0.48 0.23 t-0.86 0.27 t-1.2 0.23 t-1.52 0.09 z M22.72 18.84 q0 1.22 -0.35 2.22 t-0.98 1.7 t-1.49 1.09 t-1.9 0.39 t-1.9 -0.39 t-1.49 -1.09 t-0.98 -1.7 t-0.35 -2.22 t0.35 -2.22 t0.98 -1.71 t1.49 -1.1 t1.9 -0.39 t1.9 0.39 t1.49 1.1 t0.98 1.71 t0.35 2.22 z M21.34 18.84 q0 -1.94 -0.9 -3.09 t-2.44 -1.15 t-2.44 1.15 t-0.9 3.09 t0.9 3.08 t2.44 1.14 t2.44 -1.14 t0.9 -3.08 z M28.16 24.18 q-0.66 -0.02 -1.15 -0.17 t-0.82 -0.46 t-0.5 -0.8 t-0.17 -1.23 l0 -12.8 l1.3 -0.24 l0 13 q0 0.48 0.09 0.77 t0.27 0.46 t0.47 0.25 t0.69 0.14 z M39.46 18.84 q0 1.22 -0.35 2.22 t-0.98 1.7 t-1.49 1.09 t-1.9 0.39 t-1.9 -0.39 t-1.49 -1.09 t-0.98 -1.7 t-0.35 -2.22 t0.35 -2.22 t0.98 -1.71 t1.49 -1.1 t1.9 -0.39 t1.9 0.39 t1.49 1.1 t0.98 1.71 t0.35 2.22 z M38.08 18.84 q0 -1.94 -0.9 -3.09 t-2.44 -1.15 t-2.44 1.15 t-0.9 3.09 t0.9 3.08 t2.44 1.14 t2.44 -1.14 t0.9 -3.08 z M45.800000000000004 13.46 q0.64 0 1.21 0.1 t0.79 0.2 l-0.26 1.12 q-0.16 -0.08 -0.65 -0.17 t-1.29 -0.09 q-0.84 0 -1.35 0.12 t-0.67 0.2 l0 9.06 l-1.3 0 l0 -9.86 q0.5 -0.22 1.38 -0.45 t2.14 -0.23 z M53.02000000000001 23.06 q0.76 0 1.33 -0.05 t0.97 -0.13 l0 -3.64 q-0.22 -0.1 -0.7 -0.21 t-1.32 -0.11 q-0.48 0 -1 0.07 t-0.96 0.3 t-0.72 0.63 t-0.28 1.06 q0 0.58 0.19 0.98 t0.54 0.64 t0.84 0.35 t1.11 0.11 z M52.900000000000006 13.42 q1.02 0 1.73 0.29 t1.15 0.8 t0.64 1.21 t0.2 1.52 l0 6.52 q-0.2 0.06 -0.58 0.13 t-0.88 0.15 t-1.11 0.13 t-1.25 0.05 q-0.82 0 -1.51 -0.18 t-1.2 -0.57 t-0.8 -1 t-0.29 -1.49 q0 -0.84 0.32 -1.44 t0.9 -0.99 t1.38 -0.57 t1.74 -0.18 q0.28 0 0.59 0.03 t0.6 0.08 t0.5 0.1 t0.29 0.09 l0 -0.64 q0 -0.54 -0.08 -1.05 t-0.35 -0.92 t-0.76 -0.66 t-1.29 -0.25 q-1.14 0 -1.7 0.16 t-0.82 0.26 l-0.18 -1.14 q0.34 -0.16 1.05 -0.3 t1.71 -0.14 z M68.16000000000001 23.68 q-0.58 0.2 -1.48 0.38 t-2.28 0.18 q-1.14 0 -2.07 -0.37 t-1.6 -1.07 t-1.04 -1.7 t-0.37 -2.26 q0 -1.18 0.31 -2.17 t0.91 -1.71 t1.47 -1.12 t1.99 -0.4 q1.02 0 1.77 0.29 t1.09 0.55 l0 -5.56 l1.3 -0.24 l0 15.2 z M66.86000000000001 15.54 q-0.18 -0.14 -0.45 -0.3 t-0.63 -0.3 t-0.78 -0.23 t-0.88 -0.09 q-0.96 0 -1.61 0.34 t-1.05 0.91 t-0.58 1.34 t-0.18 1.63 q0 2.04 1.02 3.13 t2.7 1.09 q0.96 0 1.55 -0.09 t0.89 -0.19 l0 -7.24 z M80.42000000000002 18.84 q0 1.22 -0.35 2.22 t-0.98 1.7 t-1.49 1.09 t-1.9 0.39 t-1.9 -0.39 t-1.49 -1.09 t-0.98 -1.7 t-0.35 -2.22 t0.35 -2.22 t0.98 -1.71 t1.49 -1.1 t1.9 -0.39 t1.9 0.39 t1.49 1.1 t0.98 1.71 t0.35 2.22 z M79.04 18.84 q0 -1.94 -0.9 -3.09 t-2.44 -1.15 t-2.44 1.15 t-0.9 3.09 t0.9 3.08 t2.44 1.14 t2.44 -1.14 t0.9 -3.08 z  M91.20000000000002 24.12 q-0.34 0 -0.79 -0.03 t-0.92 -0.08 t-0.89 -0.12 t-0.72 -0.15 l0 -13.34 q0.36 -0.1 0.8 -0.17 t0.91 -0.12 t0.92 -0.07 t0.83 -0.02 q1.12 0 2.13 0.18 t1.77 0.6 t1.21 1.11 t0.45 1.71 q0 1.12 -0.57 1.91 t-1.53 1.09 q0.6 0.14 1.1 0.4 t0.88 0.67 t0.59 1 t0.21 1.41 q0 1.96 -1.56 2.99 t-4.82 1.03 z M89.24000000000001 17.36 l0 5.46 q0.3 0.04 0.9 0.09 t1.22 0.05 q0.92 0 1.79 -0.12 t1.53 -0.44 t1.06 -0.88 t0.4 -1.44 q0 -0.8 -0.28 -1.33 t-0.8 -0.84 t-1.27 -0.43 t-1.67 -0.12 l-2.88 0 z M89.24000000000001 16.2 l2.64 0 q0.74 0 1.4 -0.11 t1.15 -0.4 t0.77 -0.78 t0.28 -1.25 q0 -0.68 -0.3 -1.15 t-0.85 -0.77 t-1.31 -0.43 t-1.68 -0.13 q-0.74 0 -1.25 0.04 t-0.85 0.1 l0 4.88 z M103.22000000000001 24.22 q-0.66 -1.22 -1.27 -2.54 t-1.14 -2.67 t-0.97 -2.7 t-0.76 -2.65 l1.38 0 q0.22 0.96 0.56 2.07 t0.77 2.29 t0.95 2.42 t1.12 2.44 q0.44 -1.24 0.78 -2.34 t0.63 -2.19 t0.56 -2.23 t0.57 -2.46 l1.3 0 q-0.64 2.9 -1.46 5.64 t-1.78 5.02 q-0.38 0.9 -0.78 1.55 t-0.89 1.07 t-1.14 0.62 t-1.53 0.2 q-0.5 0 -0.91 -0.12 t-0.51 -0.18 l0.26 -1.08 q0.08 0.06 0.45 0.17 t0.77 0.11 q0.56 0 1.01 -0.12 t0.81 -0.41 t0.65 -0.75 t0.57 -1.16 z M111.10000000000001 13.66 l4.12 0 l0 1.1 l-4.12 0 l0 5.5 q0 0.88 0.15 1.43 t0.43 0.85 t0.68 0.4 t0.88 0.1 q0.82 0 1.32 -0.19 t0.78 -0.35 l0.32 1.08 q-0.28 0.18 -0.98 0.41 t-1.52 0.23 q-0.96 0 -1.61 -0.25 t-1.04 -0.76 t-0.55 -1.27 t-0.16 -1.8 l0 -9.52 l1.3 -0.24 l0 3.28 z M117 18.82 q0 -1.36 0.39 -2.37 t1.02 -1.69 t1.44 -1.01 t1.67 -0.33 q1.9 0 3.03 1.24 t1.13 3.82 q0 0.16 -0.01 0.32 t-0.03 0.3 l-7.26 0 q0.06 1.9 0.94 2.92 t2.8 1.02 q1.06 0 1.68 -0.2 t0.9 -0.34 l0.24 1.12 q-0.28 0.16 -1.05 0.38 t-1.81 0.22 q-1.36 0 -2.32 -0.4 t-1.58 -1.12 t-0.9 -1.71 t-0.28 -2.17 z M124.34 18 q-0.04 -1.62 -0.76 -2.52 t-2.04 -0.9 q-0.7 0 -1.25 0.28 t-0.96 0.75 t-0.64 1.09 t-0.27 1.3 l5.92 0 z"></path></g><g id="SvgjsG2337" featureKey="text3" fill="#ffffff" transform="matrix(1.6153817176818848,0,0,1.6153817176818848,219.6781856649716,95.92940128428789)"><path d="M20.72 5.300000000000001 c0.12 0.18 0.16 0.4 0.1 0.62 l-4.22 13.54 c-0.08 0.3 -0.36 0.5 -0.68 0.5 l-1.74 0 c-0.3 0 -0.58 -0.2 -0.66 -0.48 l-3 -9.28 l-2.98 9.28 c-0.1 0.28 -0.36 0.48 -0.68 0.48 l-1.74 0 c-0.22 0 -0.44 -0.1 -0.58 -0.28 c-0.12 -0.2 -0.16 -0.44 -0.08 -0.64 l4.52 -13.56 c0.08 -0.28 0.36 -0.48 0.66 -0.48 l1.76 0 c0.32 0 0.58 0.2 0.68 0.5 l2.96 9.2 l2.8 -9.2 c0.1 -0.3 0.38 -0.5 0.68 -0.5 l1.62 0 c0.22 0 0.44 0.1 0.58 0.3 z M3.2 5.5 l1.14 3.74 c0.08 0.22 0.04 0.46 -0.1 0.64 s-0.34 0.28 -0.58 0.28 l-1.58 0 c-0.32 0 -0.6 -0.2 -0.68 -0.5 l-1.16 -3.74 c-0.08 -0.22 -0.04 -0.44 0.1 -0.62 c0.14 -0.2 0.34 -0.3 0.56 -0.3 l1.62 0 c0.32 0 0.6 0.2 0.68 0.5 z M34.47672851675169 5 c0.4 0 0.7 0.32 0.7 0.7 l0 1.44 c0 0.38 -0.3 0.7 -0.7 0.7 l-7.56 0 l0 3.06 l6.68 0 c0.4 0 0.7 0.32 0.7 0.7 l0 1.46 c0 0.38 -0.3 0.7 -0.7 0.7 l-6.68 0 l0 3.08 l7.56 0 c0.4 0 0.7 0.32 0.7 0.7 l0 1.44 c0 0.38 -0.3 0.7 -0.7 0.7 l-9.76 0 c-0.38 0 -0.7 -0.32 -0.7 -0.7 l0 -13.28 c0 -0.38 0.32 -0.7 0.7 -0.7 l9.76 0 z M48.39345703350338 16.84 c0.4 0 0.7 0.32 0.7 0.7 l0 1.44 c0 0.38 -0.3 0.7 -0.7 0.7 l-8.74 0 c-0.38 0 -0.7 -0.32 -0.7 -0.7 l0 -13.28 c0 -0.38 0.32 -0.7 0.7 -0.7 l1.5 0 c0.38 0 0.7 0.32 0.7 0.7 l0 11.14 l6.54 0 z M56.91018555025507 8.22 c-0.52 0.22 -0.98 0.54 -1.34 0.96 c-0.76 0.84 -1.12 1.94 -1.12 3.32 s0.36 2.48 1.12 3.34 c0.78 0.88 1.9 1.3 3.44 1.3 c0.82 0 1.5 -0.2 2.1 -0.6 c0.62 -0.42 1.06 -0.94 1.36 -1.64 c0.1 -0.26 0.36 -0.42 0.64 -0.42 l1.58 0 c0.22 0 0.44 0.1 0.56 0.28 c0.14 0.2 0.18 0.42 0.1 0.64 c-0.5 1.4 -1.32 2.5 -2.44 3.3 c-1.2 0.86 -2.62 1.3 -4.24 1.3 c-2.14 0 -3.9 -0.74 -5.24 -2.22 c-1.24 -1.4 -1.88 -3.18 -1.88 -5.28 s0.64 -3.88 1.88 -5.28 c1.34 -1.48 3.1 -2.22 5.24 -2.22 c1.62 0 3.04 0.44 4.24 1.3 c1.12 0.8 1.94 1.92 2.44 3.3 c0.08 0.22 0.04 0.46 -0.1 0.64 c-0.12 0.18 -0.34 0.28 -0.56 0.28 l-1.58 0 c-0.28 0 -0.54 -0.16 -0.64 -0.42 c-0.3 -0.7 -0.74 -1.22 -1.36 -1.64 c-0.6 -0.4 -1.28 -0.6 -2.1 -0.6 c-0.86 0 -1.56 0.12 -2.1 0.36 z M75.60691406700676 5 c2.16 0 3.98 0.74 5.38 2.2 c1.36 1.42 2.06 3.2 2.06 5.3 s-0.7 3.88 -2.06 5.3 c-1.4 1.46 -3.22 2.2 -5.38 2.2 s-3.98 -0.74 -5.38 -2.2 c-1.36 -1.42 -2.06 -3.2 -2.06 -5.3 s0.7 -3.88 2.06 -5.3 c1.4 -1.46 3.22 -2.2 5.38 -2.2 z M75.60691406700676 17.14 c1.4 0 2.48 -0.44 3.32 -1.32 c0.82 -0.86 1.22 -1.96 1.22 -3.32 s-0.4 -2.44 -1.22 -3.32 c-0.84 -0.88 -1.92 -1.32 -3.32 -1.32 s-2.48 0.44 -3.32 1.32 c-0.82 0.88 -1.22 1.96 -1.22 3.32 s0.4 2.46 1.22 3.32 c0.84 0.88 1.92 1.32 3.32 1.32 z M100.42364258375845 5 c0.38 0 0.7 0.32 0.7 0.7 l0 13.28 c0 0.38 -0.32 0.7 -0.7 0.7 l-1.5 0 c-0.38 0 -0.7 -0.32 -0.7 -0.7 l0 -8.96 l-3.68 4.72 c-0.12 0.16 -0.32 0.26 -0.54 0.26 l0 0 c-0.22 0 -0.42 -0.1 -0.54 -0.26 l-3.76 -4.74 l0 8.98 c0 0.38 -0.32 0.7 -0.7 0.7 l-1.5 0 c-0.38 0 -0.7 -0.32 -0.7 -0.7 l0 -13.28 c0 -0.38 0.32 -0.7 0.7 -0.7 l1.74 0 c0.22 0 0.42 0.1 0.56 0.28 l4.2 5.56 l4.12 -5.56 c0.12 -0.18 0.34 -0.28 0.56 -0.28 l1.74 0 z M116.18037110051014 5 c0.4 0 0.7 0.32 0.7 0.7 l0 1.44 c0 0.38 -0.3 0.7 -0.7 0.7 l-7.56 0 l0 3.06 l6.68 0 c0.4 0 0.7 0.32 0.7 0.7 l0 1.46 c0 0.38 -0.3 0.7 -0.7 0.7 l-6.68 0 l0 3.08 l7.56 0 c0.4 0 0.7 0.32 0.7 0.7 l0 1.44 c0 0.38 -0.3 0.7 -0.7 0.7 l-9.76 0 c-0.38 0 -0.7 -0.32 -0.7 -0.7 l0 -13.28 c0 -0.38 0.32 -0.7 0.7 -0.7 l9.76 0 z M122.37709961726183 16.28 c0.38 0 0.7 0.3 0.7 0.7 l0 1.78 c0 1.9 -0.88 2.98 -2.76 3.4 c-0.04 0.02 -0.1 0.02 -0.16 0.02 c-0.28 0 -0.54 -0.18 -0.64 -0.46 l-0.24 -0.7 c-0.12 -0.36 0.06 -0.74 0.42 -0.88 c0.36 -0.12 0.58 -0.26 0.72 -0.4 c-0.32 -0.06 -0.56 -0.34 -0.56 -0.68 l0 -2.08 c0 -0.4 0.3 -0.7 0.68 -0.7 l1.84 0 z  M139.99055665076523 7.859999999999999 c-0.36 -0.06 -0.6 -0.34 -0.6 -0.7 l0 -1.46 c0 -0.2 0.08 -0.4 0.24 -0.52 c0.16 -0.14 0.36 -0.2 0.56 -0.18 c1.14 0.18 2.16 0.58 3.06 1.22 c1.14 0.82 1.98 1.94 2.46 3.34 c0.08 0.22 0.04 0.46 -0.08 0.64 c-0.14 0.2 -0.36 0.3 -0.58 0.3 l-1.6 0 c-0.28 0 -0.54 -0.16 -0.66 -0.42 c-0.3 -0.7 -0.74 -1.24 -1.34 -1.66 c-0.44 -0.28 -0.92 -0.48 -1.46 -0.56 z M145.05055665076523 14.5 c0.22 0 0.44 0.1 0.58 0.3 c0.12 0.18 0.16 0.42 0.08 0.64 c-0.48 1.4 -1.32 2.52 -2.46 3.34 c-0.9 0.64 -1.92 1.04 -3.06 1.22 l-0.1 0 c-0.18 0 -0.34 -0.06 -0.46 -0.18 c-0.16 -0.12 -0.24 -0.32 -0.24 -0.52 l0 -1.46 c0 -0.36 0.24 -0.64 0.58 -0.7 c0.56 -0.08 1.04 -0.26 1.48 -0.56 c0.6 -0.42 1.04 -0.96 1.34 -1.66 c0.12 -0.26 0.38 -0.42 0.66 -0.42 l1.6 0 z M137.89055665076523 5.24 c0.16 0.12 0.26 0.32 0.26 0.54 l0 1.56 c0 0.3 -0.22 0.58 -0.52 0.68 c-0.16 0.04 -0.3 0.08 -0.44 0.14 c-0.54 0.24 -0.98 0.56 -1.36 0.98 c-0.76 0.86 -1.14 1.96 -1.14 3.36 s0.38 2.5 1.14 3.36 c0.48 0.54 1.06 0.9 1.8 1.12 c0.3 0.08 0.52 0.36 0.52 0.66 l0 1.58 c0 0.22 -0.1 0.42 -0.26 0.54 c-0.14 0.12 -0.3 0.16 -0.46 0.16 l-0.14 0 c-1.42 -0.3 -2.64 -1 -3.62 -2.08 c-1.26 -1.42 -1.9 -3.2 -1.9 -5.34 c0 -2.12 0.64 -3.92 1.9 -5.34 c0.98 -1.08 2.2 -1.78 3.62 -2.06 c0.22 -0.06 0.42 0 0.6 0.14 z M158.8072851675169 16.84 c0.4 0 0.7 0.32 0.7 0.7 l0 1.44 c0 0.38 -0.3 0.7 -0.7 0.7 l-8.74 0 c-0.38 0 -0.7 -0.32 -0.7 -0.7 l0 -13.28 c0 -0.38 0.32 -0.7 0.7 -0.7 l1.5 0 c0.38 0 0.7 0.32 0.7 0.7 l0 11.14 l6.54 0 z M169.4040136842686 5 c2.16 0 3.98 0.74 5.38 2.2 c1.36 1.42 2.06 3.2 2.06 5.3 s-0.7 3.88 -2.06 5.3 c-1.4 1.46 -3.22 2.2 -5.38 2.2 s-3.98 -0.74 -5.38 -2.2 c-1.36 -1.42 -2.06 -3.2 -2.06 -5.3 s0.7 -3.88 2.06 -5.3 c1.4 -1.46 3.22 -2.2 5.38 -2.2 z M169.4040136842686 17.14 c1.4 0 2.48 -0.44 3.32 -1.32 c0.82 -0.86 1.22 -1.96 1.22 -3.32 s-0.4 -2.44 -1.22 -3.32 c-0.84 -0.88 -1.92 -1.32 -3.32 -1.32 s-2.48 0.44 -3.32 1.32 c-0.82 0.88 -1.22 1.96 -1.22 3.32 s0.4 2.46 1.22 3.32 c0.84 0.88 1.92 1.32 3.32 1.32 z M192.4407422010203 5 c0.38 0 0.7 0.32 0.7 0.7 l0 7.56 c0 1.94 -0.6 3.54 -1.78 4.76 c-1.18 1.2 -2.72 1.82 -4.58 1.82 s-3.38 -0.62 -4.56 -1.82 c-1.18 -1.22 -1.78 -2.82 -1.78 -4.76 l0 -7.56 c0 -0.38 0.32 -0.7 0.7 -0.7 l1.5 0 c0.38 0 0.7 0.32 0.7 0.7 l0 7.6 c0 1.24 0.34 2.18 1.06 2.84 c0.6 0.56 1.38 0.84 2.38 0.84 c0.98 0 1.78 -0.28 2.4 -0.84 c0.7 -0.66 1.06 -1.58 1.06 -2.84 l0 -7.6 c0 -0.38 0.3 -0.7 0.68 -0.7 l1.52 0 z M206.41747071777198 5.5 c0.82 0.34 1.56 0.84 2.18 1.48 c1.38 1.4 2.08 3.2 2.08 5.36 s-0.7 3.96 -2.08 5.36 c-0.62 0.64 -1.36 1.14 -2.18 1.48 s-1.66 0.5 -2.54 0.5 l-5.6 0 c-0.38 0 -0.7 -0.32 -0.7 -0.7 l0 -13.28 c0 -0.38 0.32 -0.7 0.7 -0.7 l5.6 0 c0.88 0 1.74 0.18 2.54 0.5 z M200.47747071777198 7.82 l0 9.04 l3.34 0 c1.18 0 2.12 -0.42 2.86 -1.3 c0.74 -0.86 1.1 -1.92 1.1 -3.22 s-0.36 -2.36 -1.1 -3.22 c-0.74 -0.88 -1.68 -1.3 -2.86 -1.3 l-3.34 0 z"></path></g>
			</g>
		</svg>
	